<svg id="aim" xmlns="http://www.w3.org/2000/svg" width="56.351" height="56.351" viewBox="0 0 56.351 56.351">
  <path id="Caminho_15" data-name="Caminho 15" d="M25.479,48.959A23.479,23.479,0,1,1,48.959,25.479,23.506,23.506,0,0,1,25.479,48.959Zm0-43.437A19.957,19.957,0,1,0,45.437,25.479,19.98,19.98,0,0,0,25.479,5.522Z" transform="translate(2.696 2.696)" fill="#cf44f9"/>
  <path id="Caminho_16" data-name="Caminho 16" d="M13.011,11.74A1.762,1.762,0,0,1,11.25,9.979V1.761a1.761,1.761,0,0,1,3.522,0V9.979A1.762,1.762,0,0,1,13.011,11.74Z" transform="translate(15.164)" fill="#cf44f9"/>
  <path id="Caminho_17" data-name="Caminho 17" d="M28.979,14.772H20.761a1.761,1.761,0,0,1,0-3.522h8.218a1.761,1.761,0,0,1,0,3.522Z" transform="translate(25.611 15.164)" fill="#cf44f9"/>
  <path id="Caminho_18" data-name="Caminho 18" d="M13.011,30.74a1.762,1.762,0,0,1-1.761-1.761V20.761a1.761,1.761,0,0,1,3.522,0v8.218A1.762,1.762,0,0,1,13.011,30.74Z" transform="translate(15.164 25.611)" fill="#cf44f9"/>
  <path id="Caminho_19" data-name="Caminho 19" d="M9.979,14.772H1.761a1.761,1.761,0,0,1,0-3.522H9.979a1.761,1.761,0,0,1,0,3.522Z" transform="translate(0 15.164)" fill="#cf44f9"/>
  <path id="Caminho_20" data-name="Caminho 20" d="M16.044,23.088a7.044,7.044,0,1,1,7.044-7.044A7.052,7.052,0,0,1,16.044,23.088Zm0-10.566a3.522,3.522,0,1,0,3.522,3.522A3.526,3.526,0,0,0,16.044,12.522Z" transform="translate(12.131 12.131)" fill="#cf44f9"/>
</svg>
