<svg xmlns="http://www.w3.org/2000/svg" width="1482.709" height="456.5" viewBox="0 0 1482.709 456.5">
  <g id="Grupo_17" data-name="Grupo 17" transform="translate(-56.576 -65.776)" opacity="0.16">
    <path id="Caminho_10" data-name="Caminho 10" d="M397.181,66.434c3.415-.958,8.149-1.391,9.975,2.458,3.578,6.614,3.036,14.456,3.09,21.72-.036,19.19-5.656,37.694-9.758,56.269-5.005,20.78-8.637,41.868-11.872,62.991-3.451,21.033-7.9,41.9-11.2,62.955-4.445,23.455-9.938,46.837-11.095,70.761-.56,12.016-1.807,24.015-1.373,36.049.723,18.738,3.65,37.26,6.361,55.781,1.03,7.626,1.7,15.486.253,23.111-1.662,7.047-10.173,10.426-16.642,7.987-4.138-2.313-5.909-6.993-7.391-11.221-4.608-15.594-13.1-29.616-21.413-43.44-5.258-8.655-9.414-18-15.414-26.2-1.193-.036-3.578-.144-4.77-.181-1.554,7.011-.651,14.185-.542,21.286.614,20.509-.054,41.036-1.373,61.491a130.16,130.16,0,0,1-3.831,25.442c-2.656,9.667-4.355,19.786-9.523,28.55-9.053.687-14-10.029-13.209-17.835,1.735-19.877,4.843-39.627,6.053-59.558,2.15-20.31,1.861-40.838,5.078-61.04,1.283-13.3,2.15-28.622-7.083-39.464-9.83-13.191-25.858-19.262-41.163-23.473-21.63-5.963-44.379-5.312-66.461-2.638-24.394,3.054-48.535,9.2-70.906,19.5-10.589,4.987-20.889,10.625-31.676,15.2-4.156,1.536-9.722,3.65-13.372-.054-1.9-1.536-1.373-4.481-.9-6.559a28.487,28.487,0,0,1,16.9-17.726c14.709-5.493,29.472-10.914,44.542-15.414,17.907-6.4,36.266-11.8,55.221-14.076,28.6-4.969,59.179-5.891,86.518,5.24,12,4.987,22.786,12.324,33.845,19.064.488-7.174,1.138-14.311,1.807-21.449,1.048-13.227,6.505-25.5,8.963-38.435,4.21-20.961,7.427-42.1,10.9-63.208,3.307-17.925,7.86-35.67,10.264-53.758,1.048-13.841,3.578-27.611,2.891-41.542C328.841,98,327.648,90.2,331.8,84.034c4.21-3.975,12.324-4.03,15.414,1.373,4.7,6.83,3.325,15.522,3.415,23.328,0,12.161-2.566,24.087-4.517,36.013-4.9,25.749-10.481,51.336-15.5,77.05-3.722,18.774-3.415,38.236-8.674,56.721-3.885,14.022-7.391,28.261-8.059,42.862-1.012,10.95-2.837,23.545,4.915,32.634,9.161,11.239,15.775,24.141,23.491,36.32,4.77-11.4,2.331-24.015,2.349-35.977-1.608-25.894,5.71-51.1,11.962-75.929,4.03-15.341,4.77-31.315,8.818-46.656A157.361,157.361,0,0,0,369.7,207.18c1.518-16.769,6.126-33.068,8.168-49.764,2.512-22.5,6.722-44.777,9.234-67.274C388.309,81.7,389.14,71.385,397.181,66.434Z" transform="translate(0)" fill="#a4a4a4"/>
    <path id="Caminho_11" data-name="Caminho 11" d="M599.03,104.305c3.18-5.078,11.041-9.342,16.263-4.68,6,4.572,4.825,12.866,4.156,19.443-1.933,12.522-1.03,25.189-.958,37.784-.054,5.005,1.464,10.318,5.656,13.444,15.432,12.775,31.044,25.569,43.981,40.982,11.674,14.239,24.9,27.213,35.507,42.319,3.867,6.144,6.017,13.155,9.27,19.624,6.144,12.089,8.276,25.786,8.746,39.229.524,11.89-5.782,22.551-12.468,31.857-6.27,9.234-16.986,13.516-26.238,19.027-16.317,9.7-35.037,13.769-52.818,19.913a176.46,176.46,0,0,1-33.014,7.625c-21.666,3.162-42.753,9.288-63.949,14.618-23.834,4.228-47.379,9.938-70.815,15.919-15.36,3.939-31.677,3.469-46.512,9.451-8.637,3.56-18.088,3.271-27.086,5.15-.669,4.734-1.283,9.45-2.042,14.185-13.064,6.108-26.96-.632-39.663-4.355-9.794-2.331-18.215-11.131-18.449-21.431-.434-6.632,7.264-9.017,12.559-9.5,17-1.337,34.043-2.349,51.047-3.831,25.189-2.982,49.674-9.956,74.538-14.817,13.48-2.927,26.816-6.939,40.657-7.77a116.156,116.156,0,0,0,41.036-9.631,56.075,56.075,0,0,1,19.516-4.3c18.7-1.12,36.158-8.493,54.336-12.378,19.877-4.048,38.326-12.757,56.865-20.69,10.318-4.246,16.534-14.42,20.238-24.448,3.506-13.318.759-27.629-4.517-40.1-7.047-14.98-16.389-29.056-28.37-40.567-6.27-6.4-12.793-12.541-18.9-19.082-6.885-7.517-13.5-15.45-21.774-21.485-2.168-1.789-5.06-1.9-7.662-2.494-4.138,7.716-3.812,16.66-4.21,25.153-.524,13.263-.253,26.526-.8,39.79-.7,19.317,2.512,38.543,2.078,57.841.036,5.854-2.62,11.926-7.77,14.98-4.011,1.211-8.926,1.12-12.143-1.933-3.451-3.415-4.752-8.384-5.06-13.083,2.078-31.875,1.337-64,6.451-95.625,2.2-12.577,4.192-25.388,3.072-38.163a19.279,19.279,0,0,0-8.655-14.944c-10.011-6.505-19.859-13.606-31.225-17.564-21.124-7.3-41.2-18.106-63.389-21.919-11.185-2.331-21.449,5.168-32.544,3.469a32.747,32.747,0,0,1-18.594-8.113c-3.849-3.74-3.216-11.474,2.4-13.137,12.956-4.572,27.069-2.638,40.3-.361,25.424,4.861,51.029,9.975,74.755,20.654,12.884,3.722,23.093,12.649,34.838,18.612.687-.361,2.078-1.12,2.765-1.5a77.8,77.8,0,0,0-1.193-26.816C598.217,115.31,597.025,109.582,599.03,104.305Z" transform="translate(219.502 25.698)" fill="#a4a4a4"/>
    <g id="Grupo_13" data-name="Grupo 13" transform="translate(410.333 298.629)">
      <path id="Caminho_12" data-name="Caminho 12" d="M380.538,197.731c2.909-4.391,9-3.307,13.155-1.608,5.728,3.759,4.21,11.42,2.584,16.95-2.115,9.179-8.854,18.052-5.421,27.773a40.475,40.475,0,0,0,7.083-.47c7.987-7.752,8.71-19.786,14.871-28.695,4.788-6.74,16.516-4.572,19.75,2.566.633,6.812-3.054,13.1-3.451,19.841.163,4.282,6.072,6,9.342,3.831,5.4-3.072,9.992-7.373,15.4-10.5,8.963-5.313,17.329-13.1,28.261-13.733,9.2-.361,19.389.434,27,6.18,9.776,10.1,8.041,28.008-2.548,36.9-7.138,6-16.389,8.637-25.334,10.625-5.349,1.138-12.486.813-15.052-4.951-3.09-7.463,3.036-15.287,9.577-18.377,5.457-1.391,10.408,2.132,15.54,3.361,6.614-1.7,10.7-9.577,7.933-15.937-3.723-5.1-10.806-4.1-16.245-3.289-14.8,3.4-24.629,15.883-36.14,24.792-8.547,7.788-20.419.7-30.3,0-7.879-1.7-11.438,7.083-15.775,11.836-3.235,4.807-10.011,8.168-15.377,4.843-3.253-3.271-4.843-7.77-7.174-11.673-10.245-1.012-16.624,9.234-26.328,10.571-9.685,1.681-18.124-4.644-25.424-10.065-5.873,6.415-11.167,13.661-18.9,18-11.528,6.7-25.966,11.818-39.031,6.469-8.059-3.524-9.812-13.064-13.86-20-4.1-6.848-1.771-15-.452-22.3,2.945-11.4,5.6-23.093,11.185-33.556,2.638-4.861,6.668-10.173,12.757-10.282,5.367-.94,9.7,2.837,14.022,5.331,7.011-2.71,14.094-6.053,21.774-5.837,5.313-.018,9.812,3.216,14.8,4.5,6.09.8,13.552-1.066,18.214,4.03,2.62,2.295,1.735,6.017,1.138,8.981-1.807,8.348-5.981,16.534-4.716,25.3.054,3.632,3.776,5.638,6.921,6.288,5.276.163,9.649-3.777,12.215-8.059C370.347,225,370.708,208.97,380.538,197.731Zm-72.586,19.552c-6.2,3.054-11.24,7.987-15.9,12.974-5.222,5.493-5.276,14.365-11.673,18.919-3.2,2.909-8.4,6.053-6.921,11.149,5.71,7.716,17.69,6.505,24.828,1.373,11.257-8.1,21.7-19.154,24.177-33.285C324.54,220.824,314.4,215.006,307.952,217.282Z" transform="translate(-252.348 -194.639)" fill="#a4a4a4"/>
    </g>
    <g id="Grupo_14" data-name="Grupo 14" transform="translate(978.996 304.431)">
      <path id="Caminho_13" data-name="Caminho 13" d="M589.328,206.415c2.421-2.855,3.849-7.21,7.553-8.565,10.878.741,19.425,8.6,25.732,16.841,5.927,7.535,9.288,16.588,12.974,25.334l3.83-.145c4.988-7.553,8.4-16.48,15.63-22.28,5.331-4.048,14.095-5.258,19.208-.235,5.475,7.409,2.078,18.4,9.2,24.864,12.36-5.385,16.227-19.877,26.472-27.719,6.325-4.283,15.7-.163,17.872,6.885,1.789,5.692,1.987,11.709,3.2,17.51,10.228-1.156,13.553-12.143,17.817-19.859,2.331-5.547,7.842-10.065,14.112-9.378,7.354,1.084,7.716,10.246,10.48,15.685,9.83,2.259,13.444-9.288,19.172-14.781,3.307-5.005,11.185-4.048,14.348.542,2.674,7.246,0,16.877,6.577,22.334,3.686,3.632,9.125,2.909,13.859,2.873,5.367-9.469-1.934-23.021,7.752-30.195,5.638-5.1,13.968-5.674,21.124-4.282,4.228.777,8.981,4.5,7.3,9.306-2.855,7.083-9.957,12.089-10.553,20.148,2.837,1.843,5.891,3.65,9.468,3.379,8.24-.036,16.552,1.608,24.774.452,6.252-3.307,2.981-10.878,3-16.353-2.168-12.125,19.3-13.733,21.72-2.964,1.716,6.361,5.367,12.486,4.391,19.3-.289,5.4-1.644,13.119,5.132,15.088,14.239,4.337,29.345,3.7,44.036,5.06,21.376,1.753,43.132-.868,64.2,4.066a153.14,153.14,0,0,0,16.95,2.692c22.045,2.313,42.934,10.842,65.069,12.631a18.11,18.11,0,0,1,12.414,5.8c4.536,5.005,4.427,14.185-1.445,18.16-4.915,3.144-10.969,1.626-16.407,1.843-9.433-.614-17.221,9.107-26.8,5.258-10.264-5.2-18.775-13.335-29.363-18-8.6-3.74-17-9.432-26.8-8.8-23.853,0-47.416-4.192-71.1-6.523-15.341-2.313-32.327-1.5-45.446-11.095-5.1-3.09-4.246-9.848-5.565-14.871-4.374-1.735-8.438.56-12.179,2.638-4.174,2.674-9.306,1.608-13.95,1.771-7.932-.416-15.738,1.482-23.635,1.211-6.487-.253-11.727-4.807-18-5.764-9.071-.488-14.13,10.9-23.31,9.541-8.24-3.668-11.872-12.378-15.432-20.039-.94.036-2.819.127-3.759.181-5.4,7.354-10.1,18.3-20.762,18.359-7.444.849-10.788-6.469-14.925-11.095l-1.9.145c-4.264,7.156-6.415,15.974-13.281,21.3-7.644,5.186-19.461,4.463-25.876-2.295-2.4-6.577-1.626-13.823-2.494-20.672-12.341,2.006-15.667,15.7-23.581,23.419-4.355,5.313-11.817,6.451-18.215,5.132-6.7-5.963-2.8-16.407-7.3-23.545a8.636,8.636,0,0,0-9.089,1.969c-6.757,6.2-9.793,15.2-15.4,22.316-5.367,7.409-11.095,17.076-21.395,17.4-11.113-.018-24.087,2.114-33.284-5.6-11.8-10.661-13.968-27.249-15.9-42.139-1.481-10.661.127-22.551,7.408-30.881C578.5,205.656,584.521,207.048,589.328,206.415Zm15.521,11.42c-5.294,3.072-11.149,5.4-15.793,9.45-2.945,6.65-1.662,14.167.09,20.961,1.355,5.15,4.355,10.39,9.686,12.179,5.475,1.861,12.721,4.1,17.546-.325,7.842-10.029,6.451-25.1-.018-35.471C613.74,221.2,609.8,215.631,604.85,217.835Z" transform="translate(-567.052 -197.85)" fill="#a4a4a4"/>
    </g>
  </g>
</svg>
