<svg xmlns="http://www.w3.org/2000/svg" width="57" height="56.994" viewBox="0 0 57 56.994">
  <g id="diamond_6_" data-name="diamond (6)" transform="translate(0 -0.027)">
    <g id="Grupo_25" data-name="Grupo 25" transform="translate(0 9.602)">
      <g id="Grupo_24" data-name="Grupo 24" transform="translate(0)">
        <path id="Caminho_21" data-name="Caminho 21" d="M56.818,100.452,47.69,86.533a1.113,1.113,0,0,0-.931-.5H10.284a1.113,1.113,0,0,0-.93.5L.212,100.408A1.113,1.113,0,0,0,.276,101.8l4.634,5.291a1.113,1.113,0,1,0,1.675-1.467l-3.017-3.445H18.542l7.524,25.689-8.5-9.708a1.113,1.113,0,1,0-1.675,1.467l11.777,13.447a1.113,1.113,0,0,0,1.675,0l12.539-14.32a1.113,1.113,0,1,0-1.675-1.467l-9.264,10.58,7.524-25.687H53.433l-6.923,7.907a1.113,1.113,0,1,0,1.675,1.467l8.54-9.753A1.113,1.113,0,0,0,56.818,100.452Zm-53.637-.5,7.1-10.779,7.069,10.779Zm9.164-11.692h14.1L19.394,99Zm16.158.917L35.57,99.949H21.437Zm0,39.092-7.642-26.09H36.145Zm9.128-29.233L30.565,88.256H44.7Zm2.061.917,7.067-10.776,7.066,10.776Z" transform="translate(0 -86.03)" fill="#cf44f9"/>
      </g>
    </g>
    <g id="Grupo_27" data-name="Grupo 27" transform="translate(3.745 30.109)">
      <g id="Grupo_26" data-name="Grupo 26">
        <path id="Caminho_22" data-name="Caminho 22" d="M47.391,276.561a5.214,5.214,0,0,1-5.208-5.208,1.113,1.113,0,0,0-2.226,0,5.214,5.214,0,0,1-5.208,5.208,1.113,1.113,0,0,0,0,2.226,5.214,5.214,0,0,1,5.208,5.208,1.113,1.113,0,1,0,2.226,0,5.214,5.214,0,0,1,5.208-5.208,1.113,1.113,0,0,0,0-2.226Zm-6.321,3.525a7.493,7.493,0,0,0-2.411-2.411,7.491,7.491,0,0,0,2.411-2.411,7.492,7.492,0,0,0,2.411,2.411A7.493,7.493,0,0,0,41.07,280.086Z" transform="translate(-33.636 -270.24)" fill="#cf44f9"/>
      </g>
    </g>
    <g id="Grupo_29" data-name="Grupo 29" transform="translate(45.868 0.027)">
      <g id="Grupo_28" data-name="Grupo 28" transform="translate(0 0)">
        <path id="Caminho_23" data-name="Caminho 23" d="M422.029,4.48a3.343,3.343,0,0,1-3.339-3.34,1.113,1.113,0,0,0-2.226,0,3.343,3.343,0,0,1-3.34,3.34,1.113,1.113,0,0,0,0,2.226,3.343,3.343,0,0,1,3.34,3.34,1.113,1.113,0,0,0,2.226,0,3.343,3.343,0,0,1,3.339-3.34,1.113,1.113,0,1,0,0-2.226Zm-4.453,2.23a5.614,5.614,0,0,0-1.117-1.117,5.614,5.614,0,0,0,1.117-1.117,5.615,5.615,0,0,0,1.117,1.117A5.609,5.609,0,0,0,417.576,6.709Z" transform="translate(-412.01 -0.027)" fill="#cf44f9"/>
      </g>
    </g>
    <g id="Grupo_31" data-name="Grupo 31" transform="translate(42.941 37.034)">
      <g id="Grupo_30" data-name="Grupo 30">
        <path id="Caminho_24" data-name="Caminho 24" d="M387.616,332.767a1.112,1.112,0,1,0,.326.787A1.117,1.117,0,0,0,387.616,332.767Z" transform="translate(-385.716 -332.441)" fill="#cf44f9"/>
      </g>
    </g>
  </g>
</svg>
