<svg id="instagram-sketched" xmlns="http://www.w3.org/2000/svg" width="24.147" height="24.152" viewBox="0 0 24.147 24.152">
  <path id="Caminho_33" data-name="Caminho 33" d="M24.534,7.1a8.825,8.825,0,0,0-.561-2.93A6.187,6.187,0,0,0,20.439.637a8.848,8.848,0,0,0-2.93-.561C16.216.014,15.806,0,12.527,0S8.837.014,7.549.071a8.828,8.828,0,0,0-2.93.561,5.893,5.893,0,0,0-2.142,1.4A5.946,5.946,0,0,0,1.085,4.166,8.849,8.849,0,0,0,.524,7.1C.463,8.389.449,8.8.449,12.078s.014,3.689.071,4.978a8.825,8.825,0,0,0,.562,2.93A6.186,6.186,0,0,0,4.615,23.52a8.849,8.849,0,0,0,2.93.561c1.288.057,1.7.071,4.978.071s3.689-.014,4.978-.071a8.823,8.823,0,0,0,2.93-.561,6.178,6.178,0,0,0,3.534-3.534,8.855,8.855,0,0,0,.561-2.93c.057-1.288.071-1.7.071-4.978s0-3.689-.061-4.978Zm-2.175,9.861a6.62,6.62,0,0,1-.415,2.241A4.006,4.006,0,0,1,19.651,21.5a6.643,6.643,0,0,1-2.241.415c-1.274.057-1.656.071-4.878.071s-3.609-.014-4.879-.071A6.616,6.616,0,0,1,5.412,21.5a3.716,3.716,0,0,1-1.387-.9,3.755,3.755,0,0,1-.9-1.387,6.644,6.644,0,0,1-.415-2.241c-.057-1.274-.071-1.656-.071-4.879s.014-3.609.071-4.878a6.616,6.616,0,0,1,.415-2.241A3.671,3.671,0,0,1,4.03,3.581a3.749,3.749,0,0,1,1.387-.9,6.648,6.648,0,0,1,2.241-.415c1.274-.057,1.656-.071,4.878-.071s3.609.014,4.879.071a6.62,6.62,0,0,1,2.241.415,3.714,3.714,0,0,1,1.387.9,3.754,3.754,0,0,1,.9,1.387,6.647,6.647,0,0,1,.415,2.241c.057,1.274.071,1.656.071,4.878s-.014,3.6-.071,4.874Zm0,0" transform="translate(-0.449 0)" fill="#fff"/>
  <path id="Caminho_34" data-name="Caminho 34" d="M131.153,124.5a6.2,6.2,0,1,0,6.2,6.2A6.206,6.206,0,0,0,131.153,124.5Zm0,10.229a4.025,4.025,0,1,1,4.025-4.025A4.025,4.025,0,0,1,131.153,134.729Zm0,0" transform="translate(-119.075 -118.626)" fill="#fff"/>
  <path id="Caminho_35" data-name="Caminho 35" d="M365.347,90.05A1.449,1.449,0,1,1,363.9,88.6,1.449,1.449,0,0,1,365.347,90.05Zm0,0" transform="translate(-345.37 -84.421)" fill="#fff"/>
</svg>
