<svg xmlns="http://www.w3.org/2000/svg" width="39" height="39" viewBox="0 0 39 39">
  <g id="Grupo_91" data-name="Grupo 91" transform="translate(-1581 -34)">
    <g id="Elipse_2" data-name="Elipse 2" transform="translate(1581 34)" fill="none" stroke="#fff" stroke-width="1">
      <circle cx="19.5" cy="19.5" r="19.5" stroke="none"/>
      <circle cx="19.5" cy="19.5" r="19" fill="none"/>
    </g>
    <g id="instagram_3_" data-name="instagram (3)" transform="translate(1591.37 44.37)">
      <g id="Grupo_5" data-name="Grupo 5">
        <g id="Grupo_4" data-name="Grupo 4">
          <path id="Caminho_7" data-name="Caminho 7" d="M13.241,0H6.019A6.019,6.019,0,0,0,0,6.019v7.222A6.019,6.019,0,0,0,6.019,19.26h7.222a6.019,6.019,0,0,0,6.019-6.019V6.019A6.019,6.019,0,0,0,13.241,0Zm4.213,13.241a4.218,4.218,0,0,1-4.213,4.213H6.019a4.218,4.218,0,0,1-4.213-4.213V6.019A4.218,4.218,0,0,1,6.019,1.806h7.222a4.218,4.218,0,0,1,4.213,4.213Z" fill="#fff"/>
        </g>
      </g>
      <g id="Grupo_7" data-name="Grupo 7" transform="translate(4.815 4.815)">
        <g id="Grupo_6" data-name="Grupo 6">
          <path id="Caminho_8" data-name="Caminho 8" d="M132.815,128a4.815,4.815,0,1,0,4.815,4.815A4.815,4.815,0,0,0,132.815,128Zm0,7.824a3.009,3.009,0,1,1,3.009-3.009A3.014,3.014,0,0,1,132.815,135.824Z" transform="translate(-128 -128)" fill="#fff"/>
        </g>
      </g>
      <g id="Grupo_9" data-name="Grupo 9" transform="translate(14.164 3.812)">
        <g id="Grupo_8" data-name="Grupo 8">
          <circle id="Elipse_4" data-name="Elipse 4" cx="0.642" cy="0.642" r="0.642" fill="#fff"/>
        </g>
      </g>
    </g>
  </g>
</svg>
