<svg id="linkedin" xmlns="http://www.w3.org/2000/svg" width="19.101" height="19.101" viewBox="0 0 19.101 19.101">
  <path id="Caminho_36" data-name="Caminho 36" d="M20.829,20.647h0V13.641c0-3.427-.738-6.067-4.744-6.067a4.159,4.159,0,0,0-3.746,2.059h-.056V7.894h-3.8V20.646h3.956V14.332c0-1.663.315-3.27,2.374-3.27,2.029,0,2.059,1.9,2.059,3.377v6.209Z" transform="translate(-1.733 -1.546)" fill="#fff"/>
  <path id="Caminho_37" data-name="Caminho 37" d="M.4,7.977h3.96V20.729H.4Z" transform="translate(-0.081 -1.628)" fill="#fff"/>
  <path id="Caminho_38" data-name="Caminho 38" d="M2.294,0A2.3,2.3,0,1,0,4.587,2.294,2.294,2.294,0,0,0,2.294,0Z" fill="#fff"/>
</svg>
