<svg xmlns="http://www.w3.org/2000/svg" width="152.158" height="46.847" viewBox="0 0 152.158 46.847">
  <g id="oi" transform="translate(-56.576 -65.776)">
    <path id="Caminho_10" data-name="Caminho 10" d="M91.529,65.843c.35-.1.836-.143,1.024.252a4.668,4.668,0,0,1,.317,2.229,27.218,27.218,0,0,1-1,5.774c-.514,2.132-.886,4.3-1.218,6.464-.354,2.158-.81,4.3-1.15,6.461a52.9,52.9,0,0,0-1.139,7.262c-.057,1.233-.185,2.464-.141,3.7a53.964,53.964,0,0,0,.653,5.724,7.43,7.43,0,0,1,.026,2.372,1.3,1.3,0,0,1-1.708.82,1.95,1.95,0,0,1-.758-1.152,19.622,19.622,0,0,0-2.2-4.458c-.54-.888-.966-1.847-1.582-2.689l-.49-.019a9.352,9.352,0,0,0-.056,2.184c.063,2.1-.006,4.211-.141,6.31a13.357,13.357,0,0,1-.393,2.611,11.663,11.663,0,0,1-.977,2.93c-.929.07-1.437-1.029-1.356-1.83.178-2.04.5-4.067.621-6.112.221-2.084.191-4.191.521-6.264.132-1.365.221-2.937-.727-4.05a7.508,7.508,0,0,0-4.224-2.409,17.664,17.664,0,0,0-6.82-.271,24.733,24.733,0,0,0-7.276,2c-1.087.512-2.144,1.09-3.251,1.56-.427.158-1,.375-1.372-.006-.195-.158-.141-.46-.093-.673a2.923,2.923,0,0,1,1.734-1.819c1.509-.564,3.024-1.12,4.571-1.582a26.213,26.213,0,0,1,5.667-1.445,16.226,16.226,0,0,1,8.879.538,26,26,0,0,1,3.473,1.956c.05-.736.117-1.469.185-2.2a37.073,37.073,0,0,1,.92-3.944c.432-2.151.762-4.321,1.118-6.486.339-1.84.807-3.66,1.053-5.517a34.19,34.19,0,0,0,.3-4.263,3.692,3.692,0,0,1,.3-2.153,1.049,1.049,0,0,1,1.582.141,4.135,4.135,0,0,1,.35,2.394,22.964,22.964,0,0,1-.464,3.7c-.5,2.642-1.076,5.268-1.591,7.907-.382,1.927-.35,3.924-.89,5.821a19.973,19.973,0,0,0-.827,4.4c-.1,1.124-.291,2.416.5,3.349A37.156,37.156,0,0,1,85.9,99.082a9.4,9.4,0,0,0,.241-3.692A25.638,25.638,0,0,1,87.364,87.6c.414-1.574.49-3.214.9-4.788a16.149,16.149,0,0,0,.439-2.524c.156-1.721.629-3.393.838-5.107.258-2.309.69-4.6.948-6.9C90.618,67.41,90.7,66.351,91.529,65.843Z" fill="#fff"/>
    <path id="Caminho_11" data-name="Caminho 11" d="M356.334,98.307c.326-.521,1.133-.959,1.669-.48.616.469.5,1.32.426,2a24.39,24.39,0,0,0-.1,3.877,1.657,1.657,0,0,0,.58,1.38,34.124,34.124,0,0,1,4.513,4.206c1.2,1.461,2.555,2.793,3.644,4.343.4.63.617,1.35.951,2.014a9.586,9.586,0,0,1,.9,4.026,5.376,5.376,0,0,1-1.279,3.269,7.634,7.634,0,0,1-2.693,1.953,28.4,28.4,0,0,1-5.42,2.043,18.108,18.108,0,0,1-3.388.783,66.39,66.39,0,0,0-6.563,1.5c-2.446.434-4.862,1.02-7.267,1.634-1.576.4-3.251.356-4.773.97a15.167,15.167,0,0,1-2.78.528c-.069.486-.132.97-.21,1.456-1.341.627-2.767-.065-4.07-.447a2.438,2.438,0,0,1-1.893-2.2c-.044-.681.745-.925,1.289-.975,1.745-.137,3.494-.241,5.239-.393,2.585-.306,5.1-1.022,7.649-1.521a27.6,27.6,0,0,1,4.172-.8,11.92,11.92,0,0,0,4.211-.988,5.755,5.755,0,0,1,2-.441,37.831,37.831,0,0,0,5.576-1.27,30.57,30.57,0,0,0,5.836-2.123,4.093,4.093,0,0,0,2.077-2.509,6.483,6.483,0,0,0-.464-4.115,14.015,14.015,0,0,0-2.911-4.163c-.643-.656-1.313-1.287-1.94-1.958a15.791,15.791,0,0,0-2.234-2.2,1.775,1.775,0,0,0-.786-.256,5.9,5.9,0,0,0-.432,2.581c-.054,1.361-.026,2.722-.082,4.083-.072,1.982.258,3.955.213,5.936a1.766,1.766,0,0,1-.8,1.537,1.276,1.276,0,0,1-1.246-.2,2.048,2.048,0,0,1-.519-1.343c.213-3.271.137-6.568.662-9.813a15.12,15.12,0,0,0,.315-3.916,1.978,1.978,0,0,0-.888-1.534,15.274,15.274,0,0,0-3.2-1.8c-2.168-.749-4.228-1.858-6.505-2.249-1.148-.239-2.2.53-3.34.356a3.361,3.361,0,0,1-1.908-.833.816.816,0,0,1,.247-1.348,8.24,8.24,0,0,1,4.135-.037,34.065,34.065,0,0,1,7.671,2.12,21.287,21.287,0,0,1,3.575,1.91c.07-.037.213-.115.284-.154a7.984,7.984,0,0,0-.122-2.752A3.074,3.074,0,0,1,356.334,98.307Z" transform="translate(-221.566 -25.94)" fill="#fff"/>
    <g id="Grupo_13" data-name="Grupo 13" transform="translate(92.879 89.671)">
      <path id="Caminho_12" data-name="Caminho 12" d="M265.5,194.956c.3-.451.923-.339,1.35-.165.588.386.432,1.172.265,1.739-.217.942-.909,1.852-.556,2.85a4.153,4.153,0,0,0,.727-.048c.82-.8.894-2.031,1.526-2.945a1.24,1.24,0,0,1,2.027.263,13.524,13.524,0,0,1-.354,2.036c.017.439.623.616.959.393.554-.315,1.025-.757,1.58-1.077.92-.545,1.778-1.344,2.9-1.409a4.28,4.28,0,0,1,2.77.634,2.686,2.686,0,0,1-.261,3.787,5.954,5.954,0,0,1-2.6,1.09c-.549.117-1.281.083-1.545-.508a1.594,1.594,0,0,1,.983-1.886c.56-.143,1.068.219,1.595.345a1.237,1.237,0,0,0,.814-1.636c-.382-.523-1.109-.421-1.667-.337-1.519.349-2.527,1.63-3.709,2.544-.877.8-2.1.072-3.11,0-.809-.174-1.174.727-1.619,1.215a1.22,1.22,0,0,1-1.578.5,5.774,5.774,0,0,1-.736-1.2c-1.051-.1-1.706.948-2.7,1.085a3.562,3.562,0,0,1-2.609-1.033,8.41,8.41,0,0,1-1.94,1.847,4.643,4.643,0,0,1-4.005.664c-.827-.362-1.007-1.341-1.422-2.053a3.238,3.238,0,0,1-.046-2.288,15.339,15.339,0,0,1,1.148-3.444A1.678,1.678,0,0,1,255,194.863c.551-.1,1,.291,1.439.547a5.851,5.851,0,0,1,2.234-.6,6.137,6.137,0,0,1,1.519.462c.625.082,1.391-.109,1.869.414.269.236.178.617.117.922a7.376,7.376,0,0,0-.484,2.6c.006.373.388.579.71.645a1.508,1.508,0,0,0,1.254-.827C264.458,197.754,264.495,196.11,265.5,194.956Zm-7.449,2.006a5.882,5.882,0,0,0-1.632,1.331c-.536.564-.541,1.474-1.2,1.941-.328.3-.862.621-.71,1.144a1.887,1.887,0,0,0,2.548.141,5.64,5.64,0,0,0,2.481-3.416C259.757,197.326,258.717,196.729,258.055,196.963Z" transform="translate(-252.349 -194.639)" fill="#fff"/>
    </g>
    <g id="Grupo_14" data-name="Grupo 14" transform="translate(151.236 90.267)">
      <path id="Caminho_13" data-name="Caminho 13" d="M569.338,198.729c.248-.293.395-.74.775-.879a3.854,3.854,0,0,1,2.641,1.728,10.933,10.933,0,0,1,1.331,2.6l.393-.015a8.975,8.975,0,0,1,1.6-2.286,1.566,1.566,0,0,1,1.971-.024c.562.76.213,1.888.944,2.552,1.268-.553,1.665-2.04,2.717-2.845a1.272,1.272,0,0,1,1.834.706c.184.584.2,1.2.328,1.8,1.05-.119,1.391-1.246,1.828-2.038a1.474,1.474,0,0,1,1.448-.962c.755.111.792,1.051,1.076,1.61,1.009.232,1.38-.953,1.967-1.517a.92.92,0,0,1,1.472.056c.274.744,0,1.732.675,2.292a1.874,1.874,0,0,0,1.422.295c.551-.972-.2-2.362.8-3.1a2.514,2.514,0,0,1,2.168-.439c.434.08.922.462.749.955-.293.727-1.022,1.241-1.083,2.068a1.587,1.587,0,0,0,.972.347,18.775,18.775,0,0,0,2.542.046c.642-.339.306-1.116.308-1.678-.223-1.244,1.98-1.409,2.229-.3a4.968,4.968,0,0,1,.451,1.98c-.03.554-.169,1.346.527,1.548a22.361,22.361,0,0,0,4.519.519c2.194.18,4.426-.089,6.588.417a15.717,15.717,0,0,0,1.739.276c2.262.237,4.406,1.113,6.677,1.3a1.858,1.858,0,0,1,1.274.6,1.287,1.287,0,0,1-.148,1.864,3.2,3.2,0,0,1-1.684.189c-.968-.063-1.767.935-2.75.54-1.053-.534-1.927-1.368-3.013-1.847a6.1,6.1,0,0,0-2.75-.9c-2.448,0-4.866-.43-7.3-.669-1.574-.237-3.317-.154-4.664-1.139-.523-.317-.436-1.011-.571-1.526a1.45,1.45,0,0,0-1.25.271,2.7,2.7,0,0,1-1.432.182c-.814-.043-1.615.152-2.425.124-.666-.026-1.2-.493-1.847-.592-.931-.05-1.45,1.118-2.392.979a3.679,3.679,0,0,1-1.584-2.056l-.386.019c-.554.755-1.037,1.878-2.131,1.884-.764.087-1.107-.664-1.532-1.139l-.195.015a6.854,6.854,0,0,1-1.363,2.186,2.154,2.154,0,0,1-2.655-.236,9.554,9.554,0,0,1-.256-2.121c-1.266.206-1.608,1.611-2.42,2.4a1.9,1.9,0,0,1-1.869.527c-.688-.612-.287-1.684-.749-2.416a.886.886,0,0,0-.933.2,17.081,17.081,0,0,0-1.58,2.29c-.551.76-1.139,1.752-2.2,1.786-1.14,0-2.472.217-3.416-.575-1.211-1.094-1.433-2.8-1.632-4.324a3.98,3.98,0,0,1,.76-3.169C568.228,198.651,568.845,198.794,569.338,198.729Zm1.593,1.172a9.918,9.918,0,0,0-1.621.97,3.29,3.29,0,0,0,.009,2.151,1.692,1.692,0,0,0,.994,1.25c.562.191,1.305.421,1.8-.033a3.283,3.283,0,0,0,0-3.64C571.844,200.246,571.439,199.675,570.931,199.9Z" transform="translate(-567.052 -197.85)" fill="#fff"/>
    </g>
  </g>
</svg>
