<svg xmlns="http://www.w3.org/2000/svg" width="138" height="38.05" viewBox="0 0 138 38.05">
  <g id="Grupo_89" data-name="Grupo 89" transform="translate(-19.337 -18.039)">
    <path id="Caminho_1" data-name="Caminho 1" d="M180.948,18.259c3.877-.418,7.974-.377,11.563,1.343a18.366,18.366,0,0,1,10.8,14.845,4.977,4.977,0,0,1-4.973,5.1c-6.857.206-13.714-.027-20.572-.041a3.578,3.578,0,1,1-.1-7.124c5.98-.137,11.968.014,17.948-.069-3.055-7.583-14.036-9.488-19.695-3.761-5.124,4.638-4.391,13.625,1,17.756,4.487,3.665,12.009,3.555,15.893-.959,1.151-1.2,1.932-2.925,3.644-3.432,2.74-.548,5.638,2.542,4.151,5.206-4.151,7.179-13.55,10.611-21.421,8.193a19.04,19.04,0,0,1,1.761-37.061Z" transform="translate(-45.974)" fill="#fff"/>
    <g id="Grupo_1" data-name="Grupo 1" transform="translate(19.337 18.053)">
      <path id="Caminho_2" data-name="Caminho 2" d="M33.526,18.615A19.3,19.3,0,0,1,51.31,23.15,18.911,18.911,0,0,1,54.735,46.42c-4.384,7.741-14.571,11.529-22.9,8.255a18.9,18.9,0,0,1,1.692-36.06Zm.61,7.405A11.7,11.7,0,0,0,26.6,37.213c-.007,6.227,5.8,11.776,12.05,11.351,6.487.089,12.153-6.206,11.344-12.66C49.652,28.431,41.007,23.067,34.136,26.02Z" transform="translate(-19.337 -18.059)" fill="#fff"/>
    </g>
    <path id="Caminho_3" data-name="Caminho 3" d="M82.685,18.376c3.4-.726,7.542-.343,9.686,2.74,6.021,8.707,11.975,17.462,18.037,26.134.527,1.137,1.815.678,2.726.459.089-1.144.158-2.288.212-3.439q2.7,4.1,5.542,8.111c-3.288,4.754-11.07,4.775-14.18-.158C99,43.784,93.132,35.447,87.405,27.014c-.452-1.185-1.781-1.171-2.836-1.11a17.564,17.564,0,0,0-.37,3.733c.041,7.09,0,14.18.027,21.264.055,1.63-.212,3.6-1.843,4.425-2.213,1.671-5.878-.343-5.617-3.117-.048-8.214-.027-16.427-.007-24.641A9.669,9.669,0,0,1,82.685,18.376Z" transform="translate(-18.079 -0.007)" fill="#fff"/>
    <path id="Caminho_4" data-name="Caminho 4" d="M101.68,21.465c1.692-1.528,3.514-3.4,5.994-3.309a8.281,8.281,0,0,1,8.1,3.459c5.713,8.433,11.557,16.77,17.3,25.182.473.589,1.021,1.589,1.959,1.274,1.343.014,1.377-1.61,1.37-2.576q-.01-11.334-.014-22.682c.075-1.288.055-2.843,1.165-3.727,2.041-2.062,6.261-.644,6.248,2.411.082,8.453.048,16.907.007,25.353.055,4.871-4.336,9.659-9.358,9.193a8.5,8.5,0,0,1-6.761-3.884c-5.706-8.426-11.543-16.77-17.29-25.175a1.928,1.928,0,0,0-2.72-.829,9.782,9.782,0,0,0-.452,3.679C105.55,26.939,103.482,24.288,101.68,21.465Z" transform="translate(-25.935 -0.014)" fill="#fff"/>
    <path id="Caminho_5" data-name="Caminho 5" d="M131.685,18.622c2.288-1.432,5.823.007,5.871,2.884q.1,8.642-.014,17.29c-2.363-3.733-4.946-7.323-7.474-10.947C130.5,24.815,128.856,20.8,131.685,18.622Z" transform="translate(-34.847 -0.007)" fill="#fff"/>
    <path id="Caminho_6" data-name="Caminho 6" d="M98.921,60.527c-.116-5.884-.185-11.79.055-17.667,2.151,3.877,4.912,7.378,7.385,11.057-.253,2.754.658,5.816-.678,8.357A3.793,3.793,0,0,1,98.921,60.527Z" transform="translate(-25.032 -7.818)" fill="#fff"/>
  </g>
</svg>
