<svg aria-hidden="true" style="position: absolute; width: 0; height: 0; overflow: hidden;" version="1.1" xmlns="http://www.w3.org/2000/svg" xmlns:xlink="http://www.w3.org/1999/xlink">
<defs>
<symbol id="icon-isnta-circle" viewBox="0 0 32 32">
<path fill="none" stroke="#fff" style="stroke: var(--color1, #fff)" stroke-linejoin="miter" stroke-linecap="butt" stroke-miterlimit="4" stroke-width="0.8205" d="M32 16c0 8.837-7.163 16-16 16s-16-7.163-16-16c0-8.837 7.163-16 16-16s16 7.163 16 16z"></path>
<path fill="none" stroke="#fff" style="stroke: var(--color1, #fff)" stroke-linejoin="miter" stroke-linecap="butt" stroke-miterlimit="4" stroke-width="0.8205" d="M31.59 16c0 8.61-6.98 15.59-15.59 15.59s-15.59-6.98-15.59-15.59c0-8.61 6.98-15.59 15.59-15.59s15.59 6.98 15.59 15.59z"></path>
<path fill="#fff" style="fill: var(--color1, #fff)" d="M19.373 8.509h-5.926c-2.728 0-4.939 2.211-4.939 4.939v0 5.926c0 2.728 2.211 4.939 4.939 4.939v0h5.926c2.728 0 4.939-2.211 4.939-4.939v-5.926c0-2.728-2.211-4.939-4.939-4.939v0zM22.83 19.373c-0.002 1.908-1.549 3.454-3.457 3.457h-5.926c-1.908-0.002-3.454-1.549-3.457-3.457v-5.926c0.002-1.908 1.549-3.454 3.457-3.457h5.926c1.908 0.002 3.454 1.549 3.457 3.457v0z"></path>
<path fill="#fff" style="fill: var(--color1, #fff)" d="M16.41 12.46c-2.182 0-3.951 1.769-3.951 3.951s1.769 3.951 3.951 3.951c2.182 0 3.951-1.769 3.951-3.951v0c0-2.182-1.769-3.951-3.951-3.951v0zM16.41 18.879c-1.364 0-2.469-1.105-2.469-2.469s1.105-2.469 2.469-2.469c1.364 0 2.469 1.105 2.469 2.469v0c-0.002 1.363-1.106 2.467-2.469 2.469h-0z"></path>
<path fill="#fff" style="fill: var(--color1, #fff)" d="M21.184 12.163c0 0.291-0.236 0.527-0.527 0.527s-0.527-0.236-0.527-0.527c0-0.291 0.236-0.527 0.527-0.527s0.527 0.236 0.527 0.527z"></path>
</symbol>
<symbol id="icon-twitter-circle" viewBox="0 0 32 32">
<path fill="none" stroke="#fff" style="stroke: var(--color1, #fff)" stroke-linejoin="miter" stroke-linecap="butt" stroke-miterlimit="4" stroke-width="0.8205" d="M32 16c0 8.837-7.163 16-16 16s-16-7.163-16-16c0-8.837 7.163-16 16-16s16 7.163 16 16z"></path>
<path fill="none" stroke="#fff" style="stroke: var(--color1, #fff)" stroke-linejoin="miter" stroke-linecap="butt" stroke-miterlimit="4" stroke-width="0.8205" d="M31.59 16c0 8.61-6.98 15.59-15.59 15.59s-15.59-6.98-15.59-15.59c0-8.61 6.98-15.59 15.59-15.59s15.59 6.98 15.59 15.59z"></path>
<path fill="#fff" style="fill: var(--color1, #fff)" d="M23.891 11.772c-0.514 0.231-1.111 0.401-1.736 0.481l-0.032 0.003c0.636-0.382 1.113-0.972 1.343-1.674l0.006-0.022c-0.56 0.337-1.211 0.593-1.905 0.732l-0.039 0.007c-0.561-0.598-1.356-0.97-2.238-0.97-1.694 0-3.067 1.373-3.067 3.067 0 0 0 0 0 0v-0c-0 0.009-0 0.020-0 0.031 0 0.237 0.026 0.467 0.075 0.689l-0.004-0.021c-2.555-0.13-4.802-1.346-6.305-3.192l-0.012-0.016c-0.265 0.444-0.421 0.979-0.421 1.551 0 1.059 0.537 1.993 1.353 2.544l0.011 0.007c-0.511-0.014-0.986-0.152-1.401-0.385l0.015 0.008v0.034c0.002 1.479 1.046 2.714 2.437 3.010l0.020 0.004c-0.234 0.064-0.503 0.101-0.78 0.101-0.008 0-0.017-0-0.025-0h0.001c-0.014 0-0.031 0-0.048 0-0.189 0-0.373-0.019-0.551-0.056l0.018 0.003c0.409 1.225 1.531 2.099 2.862 2.133l0.004 0c-1.036 0.818-2.361 1.312-3.801 1.312-0.002 0-0.004 0-0.005 0h0c-0.012 0-0.027 0-0.041 0-0.244 0-0.485-0.015-0.721-0.045l0.028 0.003c1.321 0.863 2.939 1.376 4.676 1.376 0.010 0 0.020-0 0.030-0h-0.002c0.018 0 0.039 0 0.060 0 4.788 0 8.67-3.881 8.67-8.67 0-0.020-0-0.041-0-0.061l0 0.003c0-0.135-0.005-0.267-0.012-0.396 0.607-0.438 1.118-0.966 1.524-1.571l0.014-0.022z"></path>
</symbol>
<symbol id="icon-yt-circle" viewBox="0 0 32 32">
<path fill="none" stroke="#fff" style="stroke: var(--color1, #fff)" stroke-linejoin="miter" stroke-linecap="butt" stroke-miterlimit="4" stroke-width="0.8205" d="M32 16c0 8.837-7.163 16-16 16s-16-7.163-16-16c0-8.837 7.163-16 16-16s16 7.163 16 16z"></path>
<path fill="none" stroke="#fff" style="stroke: var(--color1, #fff)" stroke-linejoin="miter" stroke-linecap="butt" stroke-miterlimit="4" stroke-width="0.8205" d="M31.59 16c0 8.61-6.98 15.59-15.59 15.59s-15.59-6.98-15.59-15.59c0-8.61 6.98-15.59 15.59-15.59s15.59 6.98 15.59 15.59z"></path>
<path fill="#fff" style="fill: var(--color1, #fff)" d="M24.674 12.305c-0.206-0.742-0.778-1.314-1.504-1.516l-0.015-0.004c-1.349-0.369-6.746-0.369-6.746-0.369s-5.396 0-6.745 0.355c-0.74 0.216-1.31 0.791-1.516 1.518l-0.004 0.016c-0.226 1.205-0.356 2.591-0.356 4.008 0 0.049 0 0.098 0 0.146l-0-0.008c-0 0.043-0 0.095-0 0.146 0 1.414 0.129 2.798 0.377 4.14l-0.021-0.14c0.206 0.742 0.778 1.314 1.504 1.516l0.015 0.004c1.363 0.369 6.745 0.369 6.745 0.369s5.396 0 6.745-0.355c0.742-0.206 1.314-0.778 1.517-1.504l0.004-0.015c0.226-1.205 0.356-2.592 0.356-4.009 0-0.049-0-0.097-0-0.146l0 0.007c0.001-0.075 0.001-0.163 0.001-0.251 0-1.382-0.13-2.734-0.378-4.044l0.021 0.135zM14.69 19.037v-5.169l4.487 2.585z"></path>
</symbol>
<symbol id="icon-facebook-circle" viewBox="0 0 32 32">
<path fill="none" stroke="#fff" style="stroke: var(--color1, #fff)" stroke-linejoin="miter" stroke-linecap="butt" stroke-miterlimit="4" stroke-width="0.8205" d="M32 16c0 8.837-7.163 16-16 16s-16-7.163-16-16c0-8.837 7.163-16 16-16s16 7.163 16 16z"></path>
<path fill="none" stroke="#fff" style="stroke: var(--color1, #fff)" stroke-linejoin="miter" stroke-linecap="butt" stroke-miterlimit="4" stroke-width="0.8205" d="M31.59 16c0 8.61-6.98 15.59-15.59 15.59s-15.59-6.98-15.59-15.59c0-8.61 6.98-15.59 15.59-15.59s15.59 6.98 15.59 15.59z"></path>
<path fill="#fff" style="fill: var(--color1, #fff)" d="M18.050 11.236h1.415v-2.462c-0.605-0.071-1.306-0.112-2.016-0.112-0.016 0-0.031 0-0.047 0h0.002c-2.039 0-3.436 1.282-3.436 3.641v2.17h-2.251v2.754h2.251v6.93h2.759v-6.93h2.16l0.343-2.754h-2.503v-1.897c0-0.796 0.215-1.341 1.324-1.341z"></path>
</symbol>
</defs>
</svg>
