<svg xmlns="http://www.w3.org/2000/svg" width="39" height="39" viewBox="0 0 39 39">
  <g id="Grupo_94" data-name="Grupo 94" transform="translate(-1708 -34)">
    <g id="Elipse_5" data-name="Elipse 5" transform="translate(1708 34)" fill="none" stroke="#fff" stroke-width="1">
      <circle cx="19.5" cy="19.5" r="19.5" stroke="none"/>
      <circle cx="19.5" cy="19.5" r="19" fill="none"/>
    </g>
    <g id="twitter_1_" data-name="twitter (1)" transform="translate(1718.884 -1.407)">
      <g id="Grupo_11" data-name="Grupo 11" transform="translate(0 48)">
        <path id="Caminho_9" data-name="Caminho 9" d="M18.233,49.754a7.793,7.793,0,0,1-2.154.59,3.717,3.717,0,0,0,1.644-2.066,7.47,7.47,0,0,1-2.37.9,3.738,3.738,0,0,0-6.466,2.556,3.849,3.849,0,0,0,.087.852,10.58,10.58,0,0,1-7.7-3.91,3.739,3.739,0,0,0,1.149,5,3.691,3.691,0,0,1-1.689-.46v.041a3.755,3.755,0,0,0,2.995,3.673,3.731,3.731,0,0,1-.98.123,3.305,3.305,0,0,1-.708-.064,3.774,3.774,0,0,0,3.493,2.6A7.511,7.511,0,0,1,.895,61.188,7,7,0,0,1,0,61.137a10.523,10.523,0,0,0,5.734,1.677A10.566,10.566,0,0,0,16.373,52.178c0-.165-.006-.325-.014-.483A7.457,7.457,0,0,0,18.233,49.754Z" transform="translate(0 -48)" fill="#fff"/>
      </g>
    </g>
  </g>
</svg>
