<svg xmlns="http://www.w3.org/2000/svg" width="39" height="39" viewBox="0 0 39 39">
  <g id="Grupo_93" data-name="Grupo 93" transform="translate(-1644 -34)">
    <g id="Elipse_3" data-name="Elipse 3" transform="translate(1644 34)" fill="none" stroke="#fff" stroke-width="1">
      <circle cx="19.5" cy="19.5" r="19.5" stroke="none"/>
      <circle cx="19.5" cy="19.5" r="19" fill="none"/>
    </g>
    <path id="youtube_2_" data-name="youtube (2)" d="M20.58-3.78a2.632,2.632,0,0,0-1.852-1.852c-1.644-.45-8.222-.45-8.222-.45s-6.577,0-8.221.433A2.686,2.686,0,0,0,.433-3.78,27.738,27.738,0,0,0,0,1.274,27.636,27.636,0,0,0,.433,6.328,2.633,2.633,0,0,0,2.285,8.18c1.661.45,8.221.45,8.221.45s6.577,0,8.221-.433A2.633,2.633,0,0,0,20.58,6.345a27.747,27.747,0,0,0,.433-5.054A26.33,26.33,0,0,0,20.58-3.78ZM8.412,4.424v-6.3l5.469,3.15Zm0,0" transform="translate(1653.492 52.777)" fill="#fff"/>
  </g>
</svg>
